HIERARCHY
ROOT Hips
{
  OFFSET 13.9192 87.0099 7.45665
  CHANNELS 6 Xposition Yposition Zposition Zrotation Xrotation Yrotation
  JOINT RightUpLeg
  {
    OFFSET -9.25892 -1.51126 0.0103963
    CHANNELS 3 Zrotation Xrotation Yrotation
    JOINT RightLeg
    {
      OFFSET -0.0493687 -41.9019 0.103893
      CHANNELS 3 Zrotation Xrotation Yrotation
      JOINT RightFoot
      {
        OFFSET -1.32222 -41.6903 -0.651221
        CHANNELS 3 Zrotation Xrotation Yrotation
        End Site
        {
          OFFSET 0 -7.69 17.5
        }
      }
    }
  }
  JOINT LeftUpLeg
  {
    OFFSET 9.27814 -1.57439 0.0532125
    CHANNELS 3 Zrotation Xrotation Yrotation
    JOINT LeftLeg
    {
      OFFSET 0.0812204 -41.881 0.0464493
      CHANNELS 3 Zrotation Xrotation Yrotation
      JOINT LeftFoot
      {
        OFFSET -0.0110097 -42.3775 0.673629
        CHANNELS 3 Zrotation Xrotation Yrotation
        End Site
        {
          OFFSET 0 -7.69 17.5
        }
      }
    }
  }
  JOINT Spine
  {
    OFFSET 0.0235844 14.3019 0.0112981
    CHANNELS 3 Zrotation Xrotation Yrotation
    JOINT Spine1
    {
      OFFSET 0.0175769 9.71285 0.00895779
      CHANNELS 3 Zrotation Xrotation Yrotation
      JOINT Spine2
      {
        OFFSET 0.0285364 10.1117 0.00103808
        CHANNELS 3 Zrotation Xrotation Yrotation
        JOINT Spine3
        {
          OFFSET 0.0259409 9.72657 0.0104237
          CHANNELS 3 Zrotation Xrotation Yrotation
          JOINT Neck
          {
            OFFSET -0.0111787 10.3773 0.0255796
            CHANNELS 3 Zrotation Xrotation Yrotation
            JOINT Head
            {
              OFFSET -0.00267722 9.48908 0.0510269
              CHANNELS 3 Zrotation Xrotation Yrotation
              End Site
              {
                OFFSET 0 15.95 0
              }
            }
          }
          JOINT RightShoulder
          {
            OFFSET -3.1909 6.94591 0.0199124
            CHANNELS 3 Zrotation Xrotation Yrotation
            JOINT RightArm
            {
              OFFSET -12.7524 0.0197095 0.0110528
              CHANNELS 3 Zrotation Xrotation Yrotation
              JOINT RightForeArm
              {
                OFFSET -26.4891 -0.0606575 0.0254635
                CHANNELS 3 Zrotation Xrotation Yrotation
                JOINT RightHand
                {
                  OFFSET -26.017 -0.0465962 -0.00264686
                  CHANNELS 3 Zrotation Xrotation Yrotation
                  JOINT RightHandThumb1
                  {
                    OFFSET -2.48905 0.190105 3.12053
                    CHANNELS 3 Zrotation Xrotation Yrotation
                    JOINT RightHandThumb2
                    {
                      OFFSET -3.68274 0 0
                      CHANNELS 3 Zrotation Xrotation Yrotation
                      JOINT RightHandThumb3
                      {
                        OFFSET -2.55832 0 0
                        CHANNELS 3 Zrotation Xrotation Yrotation
                        End Site
                        {
                          OFFSET -2.194 0 0
                        }
                      }
                    }
                  }
                  JOINT RightInHandIndex
                  {
                    OFFSET -3.22368 0.508421 1.97842
                    CHANNELS 3 Zrotation Xrotation Yrotation
                    JOINT RightHandIndex1
                    {
                      OFFSET -5.21684 -0.091368 0.999158
                      CHANNELS 3 Zrotation Xrotation Yrotation
                      JOINT RightHandIndex2
                      {
                        OFFSET -3.61937 0 0
                        CHANNELS 3 Zrotation Xrotation Yrotation
                        JOINT RightHandIndex3
                        {
                          OFFSET -2.0521 0 0
                          CHANNELS 3 Zrotation Xrotation Yrotation
                          End Site
                          {
                            OFFSET -1.805 0 0
                          }
                        }
                      }
                    }
                  }
                  JOINT RightInHandMiddle
                  {
                    OFFSET -3.38211 0.517263 0.756737
                    CHANNELS 3 Zrotation Xrotation Yrotation
                    JOINT RightHandMiddle1
                    {
                      OFFSET -5.17411 -0.084 0.313895
                      CHANNELS 3 Zrotation Xrotation Yrotation
                      JOINT RightHandMiddle2
                      {
                        OFFSET -3.94947 0 0
                        CHANNELS 3 Zrotation Xrotation Yrotation
                        JOINT RightHandMiddle3
                        {
                          OFFSET -2.47579 0 0
                          CHANNELS 3 Zrotation Xrotation Yrotation
                          End Site
                          {
                            OFFSET -1.975 0 0
                          }
                        }
                      }
                    }
                  }
                  JOINT RightInHandRing
                  {
                    OFFSET -3.36516 0.537895 -0.128947
                    CHANNELS 3 Zrotation Xrotation Yrotation
                    JOINT RightHandRing1
                    {
                      OFFSET -4.63474 -0.022105 -0.478947
                      CHANNELS 3 Zrotation Xrotation Yrotation
                      JOINT RightHandRing2
                      {
                        OFFSET -3.44238 0 0
                        CHANNELS 3 Zrotation Xrotation Yrotation
                        JOINT RightHandRing3
                        {
                          OFFSET -2.3881 0 0
                          CHANNELS 3 Zrotation Xrotation Yrotation
                          End Site
                          {
                            OFFSET -1.857 0 0
                          }
                        }
                      }
                    }
                  }
                  JOINT RightInHandPinky
                  {
                    OFFSET -3.16105 0.469368 -1.20179
                    CHANNELS 3 Zrotation Xrotation Yrotation
                    JOINT RightHandPinky1
                    {
                      OFFSET -4.14105 -0.022105 -1.09053
                      CHANNELS 3 Zrotation Xrotation Yrotation
                      JOINT RightHandPinky2
                      {
                        OFFSET -2.75653 0 0
                        CHANNELS 3 Zrotation Xrotation Yrotation
                        JOINT RightHandPinky3
                        {
                          OFFSET -1.74189 0 0
                          CHANNELS 3 Zrotation Xrotation Yrotation
                          End Site
                          {
                            OFFSET -1.645 0 0
                          }
                        }
                      }
                    }
                  }
                }
              }
            }
          }
          JOINT LeftShoulder
          {
            OFFSET 3.2161 6.92611 -0.00186679
            CHANNELS 3 Zrotation Xrotation Yrotation
            JOINT LeftArm
            {
              OFFSET 12.7484 -0.0283569 -0.0302446
              CHANNELS 3 Zrotation Xrotation Yrotation
              JOINT LeftForeArm
              {
                OFFSET 26.4766 -0.0880322 -0.0033192
                CHANNELS 3 Zrotation Xrotation Yrotation
                JOINT LeftHand
                {
                  OFFSET 26.0079 -0.0456134 -0.0735001
                  CHANNELS 3 Zrotation Xrotation Yrotation
                  JOINT LeftHandThumb1
                  {
                    OFFSET 2.48905 0.190105 3.12053
                    CHANNELS 3 Zrotation Xrotation Yrotation
                    JOINT LeftHandThumb2
                    {
                      OFFSET 3.68274 0 0
                      CHANNELS 3 Zrotation Xrotation Yrotation
                      JOINT LeftHandThumb3
                      {
                        OFFSET 2.55832 0 0
                        CHANNELS 3 Zrotation Xrotation Yrotation
                        End Site
                        {
                          OFFSET 2.194 0 0
                        }
                      }
                    }
                  }
                  JOINT LeftInHandIndex
                  {
                    OFFSET 3.22368 0.508421 1.97842
                    CHANNELS 3 Zrotation Xrotation Yrotation
                    JOINT LeftHandIndex1
                    {
                      OFFSET 5.21684 -0.091368 0.999158
                      CHANNELS 3 Zrotation Xrotation Yrotation
                      JOINT LeftHandIndex2
                      {
                        OFFSET 3.61937 0 0
                        CHANNELS 3 Zrotation Xrotation Yrotation
                        JOINT LeftHandIndex3
                        {
                          OFFSET 2.0521 0 0
                          CHANNELS 3 Zrotation Xrotation Yrotation
                          End Site
                          {
                            OFFSET 1.805 0 0
                          }
                        }
                      }
                    }
                  }
                  JOINT LeftInHandMiddle
                  {
                    OFFSET 3.38211 0.517263 0.756737
                    CHANNELS 3 Zrotation Xrotation Yrotation
                    JOINT LeftHandMiddle1
                    {
                      OFFSET 5.17411 -0.084 0.313895
                      CHANNELS 3 Zrotation Xrotation Yrotation
                      JOINT LeftHandMiddle2
                      {
                        OFFSET 3.94947 0 0
                        CHANNELS 3 Zrotation Xrotation Yrotation
                        JOINT LeftHandMiddle3
                        {
                          OFFSET 2.47579 0 0
                          CHANNELS 3 Zrotation Xrotation Yrotation
                          End Site
                          {
                            OFFSET 1.975 0 0
                          }
                        }
                      }
                    }
                  }
                  JOINT LeftInHandRing
                  {
                    OFFSET 3.36516 0.537895 -0.128947
                    CHANNELS 3 Zrotation Xrotation Yrotation
                    JOINT LeftHandRing1
                    {
                      OFFSET 4.63474 -0.022105 -0.478947
                      CHANNELS 3 Zrotation Xrotation Yrotation
                      JOINT LeftHandRing2
                      {
                        OFFSET 3.44238 0 0
                        CHANNELS 3 Zrotation Xrotation Yrotation
                        JOINT LeftHandRing3
                        {
                          OFFSET 2.3881 0 0
                          CHANNELS 3 Zrotation Xrotation Yrotation
                          End Site
                          {
                            OFFSET 1.857 0 0
                          }
                        }
                      }
                    }
                  }
                  JOINT LeftInHandPinky
                  {
                    OFFSET 3.16105 0.469368 -1.20179
                    CHANNELS 3 Zrotation Xrotation Yrotation
                    JOINT LeftHandPinky1
                    {
                      OFFSET 4.14105 -0.022105 -1.09053
                      CHANNELS 3 Zrotation Xrotation Yrotation
                      JOINT LeftHandPinky2
                      {
                        OFFSET 2.75653 0 0
                        CHANNELS 3 Zrotation Xrotation Yrotation
                        JOINT LeftHandPinky3
                        {
                          OFFSET 1.74189 0 0
                          CHANNELS 3 Zrotation Xrotation Yrotation
                          End Site
                          {
                            OFFSET 1.645 0 0
                          }
                        }
                      }
                    }
                  }
                }
              }
            }
          }
        }
      }
    }
  }
}
MOTION
Frames: 2
Frame Time: 0.00833333
7.668975321225777861e+02 8.615012542567178855e+01 8.613331037798982237e+00 2.633534083966159400e+01 -1.427855665910350780e+01 -1.490669118695015243e+02 4.452570259587989199e+01 -5.523791884028981514e+01 5.953317787167569008e+01 -1.930868269549448346e+00 3.599178243435630264e+01 -1.725155379357563135e+01 8.123350054588678759e+00 -9.264433392019479907e-01 3.751887498953048805e+01 5.174930687696591036e+01 -4.560341657503594348e+01 4.170230124863260812e+01 -1.680755435905172401e+00 4.451258996775411703e+01 9.609977998583847381e+00 -1.298566664118368941e+01 -1.060343125744446624e+01 5.736761083850257847e+00 -1.355550445359692713e+00 1.183742833865563959e+01 -2.327618432874418986e+01 -7.526971119432077639e-01 2.711036540947770135e+00 -6.176441025219748582e+00 -1.127062460104683472e+00 4.120746823423777627e+00 -9.972813039378985778e+00 -1.075189285754428070e+00 -1.724547649833595986e-01 2.432247550049728702e+00 -3.357995642837209527e+00 -8.502727972173270699e-01 1.608781669589012608e+01 -2.115461677076540070e+01 1.713554900174632190e+00 3.799526813793090696e+01 4.911448881888296647e+00 -3.414803651243901061e+00 -7.973009981980146321e+00 5.984509220725730216e+01 -2.038726897458529663e+01 -1.095492658937892827e+01 6.173121935939805383e+01 -2.078616771473825153e+01 1.336909020428052202e+02 -2.059533106732856567e+01 -8.352932677065982858e-01 -4.583132772085281914e+00 2.818400000000000105e+01 1.072940000000000005e+01 1.915919999999999845e+01 1.463351740567881330e-15 3.928519994666017381e-16 -1.000000000000000000e+01 4.737020627038435210e-15 -4.751880011794381882e-15 -1.000000000000000000e+01 -2.837367042861188578e-15 -4.636983822505945414e-16 -1.498747247564365775e-16 1.998179999999999978e+01 8.718970000000000331e-01 2.396399999999999864e+00 2.400000000000000000e+01 1.800499445011428298e-15 1.379802031181055102e-14 2.000000000000000000e+01 2.260344386606340859e-15 2.523394902120878018e-14 -2.837367042861188578e-15 -4.636983822505945414e-16 -1.498747247564365775e-16 2.000000000000000000e+01 1.956505617004129051e-15 9.089885850923778834e-15 2.400000000000000000e+01 2.267689344066100800e-15 1.976278817168803666e-14 2.000000000000000000e+01 2.964756369524066354e-15 1.839645754249165149e-14 -2.837367042861188578e-15 -4.636983822505945414e-16 -1.498747247564365775e-16 1.997479999999999833e+01 -1.025649999999999951e+00 -2.819380000000000219e+00 2.400000000000000000e+01 4.086726622279403196e-15 1.798720272986144249e-14 2.000000000000000000e+01 5.271276862381741181e-15 2.347507410388788984e-14 -2.837367042861188578e-15 -4.636983822505945414e-16 -1.498747247564365775e-16 1.978150000000000119e+01 -3.009479999999999933e+00 -8.305149999999999366e+00 2.400000000000000000e+01 5.349877234169293748e-16 1.902767041031682561e-14 2.000000000000000000e+01 2.678773785021023981e-15 2.257448946032803817e-14 5.874879780636491411e+00 -2.401161035547686495e+01 -9.556486741508409821e+00 1.512086391325655299e+01 4.738129735169135870e+01 -1.355619454342035795e+02 2.791147523383055429e+01 -1.029747157730480467e+01 -1.978321343450098624e+01 4.673874424017080287e+01 -1.179623789554257129e+01 3.256119018228683615e+01 -2.818400000000000105e+01 1.072940000000000005e+01 -1.915919999999999845e+01 -6.241702689822845452e-15 -2.935188182885283814e-15 1.000000000000000000e+01 -1.341078756831909674e-15 -3.700447243878616190e-15 1.000000000000000000e+01 5.085728488008972844e-16 1.532516029875428832e-15 1.401546437023678209e-15 -1.998179999999999978e+01 8.718970000000000331e-01 -2.396399999999999864e+00 -2.400000000000000000e+01 2.500810111542954821e-15 -3.095149624701872388e-15 -2.000000000000000000e+01 4.202629947207050809e-17 3.229473616738678362e-15 5.085728488008972844e-16 1.532516029875428832e-15 1.401546437023678209e-15 -2.000000000000000000e+01 5.317660308890582563e-16 -3.128613541957948352e-15 -2.400000000000000000e+01 -1.360737843633152831e-15 -5.119061640163891080e-15 -2.000000000000000000e+01 -1.863276934455859856e-15 -2.323308516124587239e-16 5.085728488008972844e-16 1.532516029875428832e-15 1.401546437023678209e-15 -1.997479999999999833e+01 -1.025649999999999951e+00 2.819380000000000219e+00 -2.400000000000000000e+01 5.869921063647283746e-15 -5.003485336118715627e-15 -2.000000000000000000e+01 8.762978367784585667e-16 -3.171853197029879403e-16 5.085728488008972844e-16 1.532516029875428832e-15 1.401546437023678209e-15 -1.978150000000000119e+01 -3.009479999999999933e+00 8.305149999999999366e+00 -2.400000000000000000e+01 1.387664786720504527e-15 -5.794532660796640872e-15 -2.000000000000000000e+01 -1.043758559040569309e-15 -9.246665043060232190e-16
7.669221597225232472e+02 8.615530689542171672e+01 8.617445474574427777e+00 2.636774434111522325e+01 -1.423358153560296024e+01 -1.489285807258352463e+02 4.441525853587194916e+01 -5.532516630077797970e+01 5.944900732954586431e+01 -1.866773743017261067e+00 3.602885720295720517e+01 -1.733268286080816623e+01 8.117350088203075131e+00 -9.646802188166831993e-01 3.745173379776037592e+01 5.169099983338265503e+01 -4.574895158419033692e+01 4.168488926723255616e+01 -1.560420260055700226e+00 4.448235244062879445e+01 9.506886132361785258e+00 -1.296816424288421743e+01 -1.054353127413016367e+01 5.688726979692448893e+00 -1.329527405098323012e+00 1.187394212686323236e+01 -2.301209639192403955e+01 -7.409483129662296497e-01 2.734849746484451671e+00 -6.104322540249542683e+00 -1.109353680492530803e+00 4.150200999740503605e+00 -9.856801078661140636e+00 -1.067918922575072704e+00 -1.578077128035439425e-01 2.409717082862240733e+00 -3.310864382583550203e+00 -8.226329844613259334e-01 1.585315332457216364e+01 -2.105160030528889692e+01 1.858712046240080129e+00 3.772376599874958458e+01 4.901698894129486561e+00 -3.406149438723109046e+00 -7.859364023154737033e+00 6.029866799558635648e+01 -1.978976086642028775e+01 -1.039870026043504581e+01 6.109796911812489384e+01 -2.098664945868678089e+01 1.323337657169608974e+02 -2.049047224410009704e+01 -1.263469427084983110e+00 -4.366747643950279922e+00 2.818400000000000105e+01 1.072940000000000005e+01 1.915919999999999845e+01 1.455396929024959740e-15 3.789268782202980422e-16 -1.000000000000000000e+01 4.828458889150285353e-15 -4.700351416232780239e-15 -1.000000000000000000e+01 -2.789140453400571217e-15 -4.900664731585725768e-16 -1.832389255768616287e-16 1.998179999999999978e+01 8.718970000000000331e-01 2.396399999999999864e+00 2.400000000000000000e+01 1.793158974834744606e-15 1.384679098270178169e-14 2.000000000000000000e+01 2.210144705794820747e-15 2.508457491514154017e-14 -2.789140453400571217e-15 -4.900664731585725768e-16 -1.832389255768616287e-16 2.000000000000000000e+01 1.968151453635185414e-15 9.118581800498637032e-15 2.400000000000000000e+01 2.242331280194124528e-15 1.979749460669480822e-14 2.000000000000000000e+01 2.988057485058142542e-15 1.841123726657057263e-14 -2.789140453400571217e-15 -4.900664731585725768e-16 -1.832389255768616287e-16 1.997479999999999833e+01 -1.025649999999999951e+00 -2.819380000000000219e+00 2.400000000000000000e+01 4.083685534137458614e-15 1.814621755422975355e-14 2.000000000000000000e+01 5.265709814777839572e-15 2.345923305591062496e-14 -2.789140453400571217e-15 -4.900664731585725768e-16 -1.832389255768616287e-16 1.978150000000000119e+01 -3.009479999999999933e+00 -8.305149999999999366e+00 2.400000000000000000e+01 5.784474416705105189e-16 1.906492691590957567e-14 2.000000000000000000e+01 2.660891393571452851e-15 2.246213562767588816e-14 5.826734140774078696e+00 -2.387907733539156396e+01 -9.501451439944604616e+00 1.444444827662915287e+01 4.760286335707031213e+01 -1.346200275320937578e+02 2.681984152826227330e+01 -1.084181592540351602e+01 -2.026770073311354636e+01 4.552134668993336675e+01 -1.253857410554908824e+01 3.146634276080558834e+01 -2.818400000000000105e+01 1.072940000000000005e+01 -1.915919999999999845e+01 -5.248162512934333018e-15 -2.856924366063062536e-15 1.000000000000000000e+01 -1.526128116125582786e-15 -3.756138663920747342e-15 1.000000000000000000e+01 5.087046642060920722e-16 1.548397323446052253e-15 1.375815953072675032e-15 -1.998179999999999978e+01 8.718970000000000331e-01 -2.396399999999999864e+00 -2.400000000000000000e+01 2.519758467148850821e-15 -3.213763568197385513e-15 -2.000000000000000000e+01 8.176655905901394845e-17 2.985227176589044638e-15 5.087046642060920722e-16 1.548397323446052253e-15 1.375815953072675032e-15 -2.000000000000000000e+01 4.574375407516052167e-16 -3.202855712402444457e-15 -2.400000000000000000e+01 -1.358315326181950694e-15 -5.170636725269110964e-15 -2.000000000000000000e+01 -1.826441589243062977e-15 -3.201255257336863508e-16 5.087046642060920722e-16 1.548397323446052253e-15 1.375815953072675032e-15 -1.997479999999999833e+01 -1.025649999999999951e+00 2.819380000000000219e+00 -2.400000000000000000e+01 5.955439253736628739e-15 -5.102421382526220886e-15 -2.000000000000000000e+01 9.077558828748413941e-16 -4.161520926492152940e-16 5.087046642060920722e-16 1.548397323446052253e-15 1.375815953072675032e-15 -1.978150000000000119e+01 -3.009479999999999933e+00 8.305149999999999366e+00 -2.400000000000000000e+01 1.434536400685271135e-15 -5.756651881150349147e-15 -2.000000000000000000e+01 -1.058769912754670787e-15 -1.106762945510098094e-15
